<svg xmlns="http://www.w3.org/2000/svg" viewBox="0 0 1440 320" width="100%" height="100%" preserveAspectRatio="none">
  <path d="M0,0L16,48C32,96,64,192,96,197.3C128,203,160,117,192,106.7C224,96,256,160,288,176C320,192,352,160,384,133.3C416,107,448,85,480,106.7C512,128,544,192,576,208C608,224,640,192,672,165.3C704,139,736,117,768,138.7C800,160,832,224,864,240C896,256,928,224,960,186.7C992,149,1024,107,1056,90.7C1088,75,1120,85,1152,101.3C1184,117,1216,139,1248,133.3C1280,128,1312,96,1344,101.3C1376,107,1408,149,1424,170.7L1440,192L1440,320L1424,320C1408,320,1376,320,1344,320C1312,320,1280,320,1248,320C1216,320,1184,320,1152,320C1120,320,1088,320,1056,320C1024,320,992,320,960,320C928,320,896,320,864,320C832,320,800,320,768,320C736,320,704,320,672,320C640,320,608,320,576,320C544,320,512,320,480,320C448,320,416,320,384,320C352,320,320,320,288,320C256,320,224,320,192,320C160,320,128,320,96,320C64,320,32,320,16,320L0,320Z"></path>
</svg>
