<svg xmlns="http://www.w3.org/2000/svg" viewBox="0 0 1440 320" height="100%" width="100%" preserveAspectRatio="none">
  <path d="M0,0L16,48C32,96,64,192,96,197.3C128,203,160,117,192,106.7C224,96,256,160,288,176C320,192,352,160,384,133.3C416,107,448,85,480,106.7C512,128,544,192,576,208C608,224,640,192,672,165.3C704,139,736,117,768,138.7C800,160,832,224,864,240C896,256,928,224,960,186.7C992,149,1024,107,1056,90.7C1088,75,1120,85,1152,101.3C1184,117,1216,139,1248,133.3C1280,128,1312,96,1344,101.3C1376,107,1408,149,1424,170.7L1440,192L1440,0L1424,0C1408,0,1376,0,1344,0C1312,0,1280,0,1248,0C1216,0,1184,0,1152,0C1120,0,1088,0,1056,0C1024,0,992,0,960,0C928,0,896,0,864,0C832,0,800,0,768,0C736,0,704,0,672,0C640,0,608,0,576,0C544,0,512,0,480,0C448,0,416,0,384,0C352,0,320,0,288,0C256,0,224,0,192,0C160,0,128,0,96,0C64,0,32,0,16,0L0,0Z"></path>
</svg>
