<svg xmlns="http://www.w3.org/2000/svg" viewBox="0 0 1440 320" height="100%" width="100%" preserveAspectRatio="none">
  <path d="M0,288L7.1,266.7C14.1,245,28,203,42,170.7C56.5,139,71,117,85,128C98.8,139,113,181,127,176C141.2,171,155,117,169,106.7C183.5,96,198,128,212,122.7C225.9,117,240,75,254,69.3C268.2,64,282,96,296,128C310.6,160,325,192,339,208C352.9,224,367,224,381,213.3C395.3,203,409,181,424,197.3C437.6,213,452,267,466,261.3C480,256,494,192,508,170.7C522.4,149,536,171,551,192C564.7,213,579,235,593,234.7C607.1,235,621,213,635,176C649.4,139,664,85,678,90.7C691.8,96,706,160,720,165.3C734.1,171,748,117,762,112C776.5,107,791,149,805,192C818.8,235,833,277,847,266.7C861.2,256,875,192,889,181.3C903.5,171,918,213,932,208C945.9,203,960,149,974,128C988.2,107,1002,117,1016,122.7C1030.6,128,1045,128,1059,117.3C1072.9,107,1087,85,1101,112C1115.3,139,1129,213,1144,240C1157.6,267,1172,245,1186,202.7C1200,160,1214,96,1228,96C1242.4,96,1256,160,1271,202.7C1284.7,245,1299,267,1313,266.7C1327.1,267,1341,245,1355,197.3C1369.4,149,1384,75,1398,48C1411.8,21,1426,43,1433,53.3L1440,64L1440,0L1432.9,0C1425.9,0,1412,0,1398,0C1383.5,0,1369,0,1355,0C1341.2,0,1327,0,1313,0C1298.8,0,1285,0,1271,0C1256.5,0,1242,0,1228,0C1214.1,0,1200,0,1186,0C1171.8,0,1158,0,1144,0C1129.4,0,1115,0,1101,0C1087.1,0,1073,0,1059,0C1044.7,0,1031,0,1016,0C1002.4,0,988,0,974,0C960,0,946,0,932,0C917.6,0,904,0,889,0C875.3,0,861,0,847,0C832.9,0,819,0,805,0C790.6,0,776,0,762,0C748.2,0,734,0,720,0C705.9,0,692,0,678,0C663.5,0,649,0,635,0C621.2,0,607,0,593,0C578.8,0,565,0,551,0C536.5,0,522,0,508,0C494.1,0,480,0,466,0C451.8,0,438,0,424,0C409.4,0,395,0,381,0C367.1,0,353,0,339,0C324.7,0,311,0,296,0C282.4,0,268,0,254,0C240,0,226,0,212,0C197.6,0,184,0,169,0C155.3,0,141,0,127,0C112.9,0,99,0,85,0C70.6,0,56,0,42,0C28.2,0,14,0,7,0L0,0Z"></path>
</svg>
