<svg xmlns="http://www.w3.org/2000/svg" viewBox="0 0 1440 320" height="100%" width="100%" preserveAspectRatio="none">
  <path d="M0,288L7.1,266.7C14.1,245,28,203,42,170.7C56.5,139,71,117,85,128C98.8,139,113,181,127,176C141.2,171,155,117,169,106.7C183.5,96,198,128,212,122.7C225.9,117,240,75,254,69.3C268.2,64,282,96,296,128C310.6,160,325,192,339,208C352.9,224,367,224,381,213.3C395.3,203,409,181,424,197.3C437.6,213,452,267,466,261.3C480,256,494,192,508,170.7C522.4,149,536,171,551,192C564.7,213,579,235,593,234.7C607.1,235,621,213,635,176C649.4,139,664,85,678,90.7C691.8,96,706,160,720,165.3C734.1,171,748,117,762,112C776.5,107,791,149,805,192C818.8,235,833,277,847,266.7C861.2,256,875,192,889,181.3C903.5,171,918,213,932,208C945.9,203,960,149,974,128C988.2,107,1002,117,1016,122.7C1030.6,128,1045,128,1059,117.3C1072.9,107,1087,85,1101,112C1115.3,139,1129,213,1144,240C1157.6,267,1172,245,1186,202.7C1200,160,1214,96,1228,96C1242.4,96,1256,160,1271,202.7C1284.7,245,1299,267,1313,266.7C1327.1,267,1341,245,1355,197.3C1369.4,149,1384,75,1398,48C1411.8,21,1426,43,1433,53.3L1440,64L1440,320L1432.9,320C1425.9,320,1412,320,1398,320C1383.5,320,1369,320,1355,320C1341.2,320,1327,320,1313,320C1298.8,320,1285,320,1271,320C1256.5,320,1242,320,1228,320C1214.1,320,1200,320,1186,320C1171.8,320,1158,320,1144,320C1129.4,320,1115,320,1101,320C1087.1,320,1073,320,1059,320C1044.7,320,1031,320,1016,320C1002.4,320,988,320,974,320C960,320,946,320,932,320C917.6,320,904,320,889,320C875.3,320,861,320,847,320C832.9,320,819,320,805,320C790.6,320,776,320,762,320C748.2,320,734,320,720,320C705.9,320,692,320,678,320C663.5,320,649,320,635,320C621.2,320,607,320,593,320C578.8,320,565,320,551,320C536.5,320,522,320,508,320C494.1,320,480,320,466,320C451.8,320,438,320,424,320C409.4,320,395,320,381,320C367.1,320,353,320,339,320C324.7,320,311,320,296,320C282.4,320,268,320,254,320C240,320,226,320,212,320C197.6,320,184,320,169,320C155.3,320,141,320,127,320C112.9,320,99,320,85,320C70.6,320,56,320,42,320C28.2,320,14,320,7,320L0,320Z"></path>
</svg>
