<svg xmlns="http://www.w3.org/2000/svg" viewBox="0 0 80 80" style="enable-background:new 0 0 80 80" xml:space="preserve"><style>.st0{fill:#8fd2c1}.st1{fill:none;stroke:#8fd2c1;stroke-miterlimit:10}.st2{fill:#fff}</style><g id="organic"><path class="st0" d="M69.57 40.93c0 16.37-13.27 29.65-29.65 29.65S10.28 57.3 10.28 40.93s13.27-29.65 29.65-29.65 29.64 13.28 29.64 29.65zM40 1.27C18.61 1.27 1.27 18.61 1.27 40S18.61 78.73 40 78.73 78.73 61.39 78.73 40 61.39 1.27 40 1.27z"></path><path class="st2" d="M15.37 21.01c-.02.03-.05.05-.08.05s-.06 0-.09-.02l-2.13-1.47.04.97c0 .04-.01.07-.03.09-.02.02-.05.04-.09.04l-.34.02c-.04 0-.07-.01-.09-.03a.127.127 0 0 1-.04-.09l-.07-1.43c0-.03 0-.05.01-.07l.03-.06.25-.37c.02-.03.04-.05.08-.05.03-.01.06 0 .09.02l2.69 1.85c.03.02.04.04.05.08 0 .03 0 .06-.02.09l-.26.38zM16.96 19.02c-.16.18-.31.32-.48.41-.16.08-.33.13-.49.13-.16 0-.32-.03-.48-.09-.16-.06-.31-.15-.46-.26-.07-.05-.15-.12-.23-.18-.08-.07-.17-.14-.25-.21l-.23-.2a1.42 1.42 0 0 1-.33-.41 1.152 1.152 0 0 1-.11-.97c.06-.18.16-.35.31-.53.15-.18.31-.32.47-.4.16-.08.33-.13.49-.14.16-.01.32.02.48.08.16.06.31.15.46.26.08.05.16.12.24.19.08.07.17.14.25.21.08.07.16.13.22.2.14.12.25.26.34.4a1.118 1.118 0 0 1 .12.97c-.06.17-.16.35-.32.54zm-.44-.37c.14-.17.19-.34.15-.51-.04-.17-.16-.33-.34-.5-.07-.07-.14-.13-.22-.2-.08-.06-.15-.13-.23-.19-.08-.06-.15-.12-.22-.17-.18-.15-.36-.23-.54-.25-.18-.01-.34.06-.48.23-.14.17-.19.34-.14.51.04.17.16.34.33.49l.22.19c.08.07.15.13.23.19.08.06.15.12.23.19.19.15.37.23.55.24.16.02.32-.06.46-.22zM19.19 16.65c-.17.17-.35.28-.52.35a1.117 1.117 0 0 1-.97-.06c-.15-.08-.29-.18-.43-.31l-.21-.21c-.08-.08-.15-.16-.23-.24-.08-.08-.14-.16-.21-.23-.12-.14-.22-.29-.29-.44-.07-.16-.11-.32-.11-.48 0-.16.03-.33.11-.5.07-.17.2-.33.37-.49.17-.16.34-.28.52-.34.17-.07.34-.09.5-.08.16.01.32.05.47.13.15.08.29.18.42.31a4.793 4.793 0 0 1 .44.45c.08.08.14.15.2.22.12.14.22.28.29.44s.11.31.12.48-.03.33-.1.5-.2.33-.37.5zm-.4-.42c.16-.15.23-.31.21-.49-.02-.17-.12-.35-.28-.53-.06-.08-.13-.15-.19-.22-.07-.07-.14-.14-.21-.22l-.2-.2c-.17-.17-.34-.27-.51-.3-.17-.03-.34.03-.5.18-.16.15-.23.31-.2.49.02.18.12.35.27.53.06.07.13.13.19.21s.14.15.21.22c.07.07.14.14.2.21.17.17.35.27.52.3.17.03.34-.03.49-.18zM20.04 13.52c-.18.14-.36.2-.54.18a.687.687 0 0 1-.46-.25c-.05-.07-.1-.13-.14-.18-.04-.05-.08-.12-.14-.19a.71.71 0 0 1-.12-.52c.03-.18.14-.33.33-.48.19-.14.38-.2.56-.18.18.02.33.11.45.27.06.07.11.13.15.18.04.05.08.12.13.19.11.17.15.34.11.51s-.14.33-.33.47zm-.22-.3c.06-.04.1-.09.12-.14s.02-.1.01-.15-.03-.09-.06-.13c-.04-.07-.08-.13-.12-.18-.03-.05-.08-.1-.13-.16a.463.463 0 0 0-.18-.13c-.07-.03-.15 0-.24.06-.08.06-.13.13-.12.21 0 .08.02.15.07.21s.08.12.12.17c.04.05.08.1.13.17.03.04.07.07.11.1.04.03.09.04.14.04.04-.01.09-.03.15-.07zm.92 1.95c-.06.04-.11.04-.15-.02-.01-.02-.02-.03-.02-.06l.09-4.11c0-.04.01-.07.02-.1s.03-.05.07-.08l.22-.16c.06-.04.11-.04.14.02.01.02.02.03.02.06l-.09 4.11c0 .04-.01.07-.01.1-.01.02-.03.05-.07.07l-.22.17zm1.99-1.44c-.18.13-.36.19-.54.17a.7.7 0 0 1-.46-.26c-.05-.07-.1-.13-.14-.18-.04-.05-.08-.11-.13-.19a.71.71 0 0 1-.12-.52c.03-.18.14-.33.33-.47.19-.14.38-.2.55-.18.17.02.33.11.46.27.06.07.11.13.15.18.04.05.08.11.13.19.11.17.15.34.11.52-.05.18-.16.34-.34.47zm-.23-.31c.06-.04.1-.09.12-.14.02-.05.02-.1.01-.15a.31.31 0 0 0-.06-.13c-.04-.07-.08-.13-.12-.18-.03-.05-.08-.1-.13-.16a.463.463 0 0 0-.18-.13c-.07-.03-.16-.01-.24.06-.08.06-.13.13-.12.21 0 .08.03.15.06.21.04.06.08.12.12.17.04.05.08.1.13.17.03.03.07.06.11.09.04.03.09.04.14.04.05 0 .1-.02.16-.06zM27.01 11.33c-.27.13-.53.19-.77.2-.24 0-.46-.06-.65-.2-.2-.13-.37-.34-.5-.61-.06-.13-.13-.26-.19-.38s-.12-.26-.18-.39a1.62 1.62 0 0 1-.14-.78c.03-.24.12-.45.27-.64.15-.19.36-.34.63-.46s.52-.18.76-.19c.25 0 .47.07.67.2.2.13.37.33.51.6.07.13.13.26.19.39s.12.26.17.39c.12.28.17.54.14.78-.02.24-.11.45-.27.63-.15.17-.36.33-.64.46zm-.24-.52c.2-.09.34-.23.41-.4.07-.18.05-.4-.06-.67-.06-.13-.11-.26-.16-.37-.05-.11-.11-.23-.18-.36-.09-.17-.19-.3-.3-.38a.686.686 0 0 0-.36-.13c-.13 0-.25.03-.39.09-.13.06-.23.14-.31.24-.08.1-.12.22-.13.35-.01.14.02.3.1.47.06.13.11.25.17.37.05.11.11.23.18.37.13.26.29.42.47.47.17.06.36.04.56-.05zM29.02 10.4c-.03.01-.06.01-.09 0s-.05-.04-.06-.07l-1.03-3.09a.17.17 0 0 1 0-.1c.02-.03.04-.05.07-.06l1.25-.42c.39-.13.73-.14 1.01-.04.29.1.48.32.6.66.08.23.08.45.02.64-.07.19-.18.36-.36.5l1.11.97c.02.02.03.03.03.05.01.03.01.06-.01.08-.02.03-.04.04-.06.05l-.44.15c-.05.02-.1.02-.14 0s-.07-.04-.1-.06l-1-.91-.67.22.38 1.14c.01.03.01.06 0 .09s-.04.05-.07.06l-.44.14zm-.04-1.97.68-.23c.2-.07.33-.16.4-.28s.08-.26.02-.42-.14-.27-.27-.32c-.13-.06-.29-.05-.49.01l-.68.23.34 1.01zM33.43 9.18c-.31.06-.58.07-.81.01s-.43-.17-.59-.35-.27-.39-.34-.67c-.03-.14-.07-.29-.1-.45s-.06-.31-.09-.46c-.05-.27-.03-.52.04-.74.08-.22.21-.4.41-.55s.44-.26.74-.32c.24-.05.46-.07.66-.04.2.03.37.07.51.15.14.07.26.16.34.26.08.1.14.2.17.3.01.03.01.05-.01.08s-.04.04-.07.05l-.51.11c-.03.01-.06.01-.08 0s-.04-.03-.06-.05c-.04-.06-.1-.12-.17-.18s-.16-.09-.26-.12c-.11-.02-.24-.02-.39.01-.23.05-.39.14-.5.29-.11.15-.14.36-.09.63.05.29.11.57.18.86.07.27.18.46.35.55.16.09.36.11.58.06.15-.03.28-.09.39-.16.11-.08.18-.18.23-.3.04-.13.05-.27.01-.45l-.03-.15-.61.13c-.03.01-.06 0-.09-.02s-.05-.04-.05-.08l-.06-.26c-.01-.04 0-.07.02-.1s.04-.04.08-.05l1.19-.25c.04-.01.07 0 .1.02s.04.04.05.08l.11.51c.06.27.05.52-.03.75-.11.22-.25.41-.45.57-.21.15-.46.26-.77.33zM35.27 8.75c-.03 0-.05 0-.08-.02-.02-.02-.04-.04-.04-.07 0-.01 0-.03.01-.05l.92-3.33c.01-.03.02-.06.05-.09.03-.03.06-.04.12-.05l.55-.05c.05-.01.09 0 .12.03.03.02.05.05.07.08l1.53 3.09c0 .02.01.03.01.04 0 .03 0 .06-.02.08-.02.02-.04.04-.07.04l-.44.04c-.05 0-.08 0-.11-.02-.02-.02-.04-.04-.05-.06l-.3-.58-1.51.14-.18.63c-.01.02-.02.04-.04.07s-.05.04-.1.04l-.44.04zm.89-1.37 1.15-.11-.72-1.48-.43 1.59zM39.04 8.45c-.03 0-.06-.01-.09-.04-.02-.02-.03-.05-.03-.09l.06-3.25c0-.04.01-.07.04-.09.02-.02.05-.03.09-.03l.39.01c.05 0 .08.01.1.03.02.02.03.04.04.05l1.43 2.27.04-2.19c0-.04.01-.07.03-.09.02-.02.05-.03.09-.03h.43c.04 0 .07.01.09.04.02.02.04.05.03.09l-.06 3.25c0 .04-.01.07-.04.09-.02.01-.05.03-.08.03l-.4-.01c-.05 0-.08-.01-.1-.04l-.05-.05-1.42-2.22-.04 2.15c0 .03-.01.06-.04.08-.02.02-.05.03-.09.03l-.42.01zM42.59 8.6c-.03 0-.06-.02-.08-.04a.14.14 0 0 1-.03-.09l.33-3.24c0-.03.02-.06.04-.08.03-.02.06-.03.09-.03l.48.05c.04 0 .07.02.09.04s.03.05.02.09l-.33 3.24c0 .03-.02.06-.04.08-.02.02-.05.03-.09.03l-.48-.05zM45.24 9.02c-.31-.06-.56-.16-.76-.3-.2-.15-.33-.33-.41-.55-.08-.22-.1-.47-.06-.75.02-.13.05-.28.07-.43s.06-.3.09-.44c.06-.27.17-.5.32-.68.15-.18.34-.3.58-.37.23-.07.51-.07.81-.02.23.04.43.11.6.2.17.09.31.2.42.33.11.13.18.26.23.42s.05.31.03.47c0 .03-.02.05-.04.07-.03.01-.05.02-.08.01l-.48-.09c-.04-.01-.07-.02-.09-.04-.02-.02-.03-.06-.03-.1-.01-.23-.08-.39-.2-.49-.12-.1-.27-.17-.46-.21a.732.732 0 0 0-.57.08c-.16.1-.27.29-.33.57-.06.27-.11.54-.15.83-.04.28-.01.5.1.65.11.15.28.24.5.28.19.04.36.03.51-.03.15-.06.26-.19.36-.39.02-.04.04-.07.07-.08.03-.01.06-.02.09-.01l.48.09c.03 0 .05.02.07.04s.02.05.01.08a1.08 1.08 0 0 1-.55.74c-.15.08-.32.13-.51.16-.18.01-.39 0-.62-.04zM50.7 10.55c-.3-.11-.53-.26-.69-.44a1.07 1.07 0 0 1-.3-.61c-.04-.23-.01-.48.08-.75.04-.13.1-.27.15-.41.06-.15.11-.29.17-.42.11-.26.26-.46.44-.61.18-.15.4-.23.64-.26s.51.02.8.13c.22.08.4.19.55.31.15.12.27.26.35.4.08.14.13.29.15.45.02.16 0 .31-.06.46-.01.03-.03.05-.05.06-.03.01-.06.01-.08 0l-.46-.16a.124.124 0 0 1-.08-.06c-.02-.03-.02-.06-.02-.1.03-.23-.01-.4-.1-.52a.92.92 0 0 0-.41-.29c-.21-.08-.41-.09-.58-.02-.17.07-.31.23-.43.5-.11.25-.21.51-.3.78s-.1.49-.02.66.23.29.44.37c.18.07.35.09.51.06.15-.03.29-.13.42-.32.03-.04.05-.06.08-.07.03-.01.06 0 .09.01l.45.17c.03.01.05.03.06.06.01.03.01.05 0 .08-.06.15-.15.28-.27.38a1.2 1.2 0 0 1-.41.24c-.16.05-.33.07-.53.06a1.79 1.79 0 0 1-.59-.14zM53.79 11.94c-.27-.14-.48-.3-.63-.49-.15-.19-.23-.4-.24-.64-.01-.24.04-.5.18-.77.06-.13.13-.25.19-.38.07-.13.13-.25.2-.38.15-.26.33-.46.53-.58.21-.12.43-.18.67-.17.24.01.49.08.75.21s.46.3.61.49c.15.19.23.41.25.65s-.04.5-.17.77c-.06.13-.12.26-.19.39-.06.13-.13.25-.21.37-.15.27-.33.46-.53.59-.2.13-.42.18-.66.17a1.79 1.79 0 0 1-.75-.23zm.26-.51c.2.1.39.13.57.08.18-.05.34-.2.49-.45.07-.13.14-.25.2-.36.06-.11.11-.23.17-.36.08-.18.12-.33.12-.47 0-.14-.04-.26-.12-.36a.975.975 0 0 0-.31-.25.772.772 0 0 0-.38-.1c-.13 0-.25.04-.36.11-.12.08-.22.2-.32.37-.07.13-.13.24-.19.36-.06.11-.12.23-.18.36-.12.26-.15.48-.09.66.08.17.21.31.4.41zM56.4 13.4c-.03-.02-.05-.04-.05-.08-.01-.03 0-.06.02-.09l1.52-2.31-.79-.52c-.03-.02-.05-.04-.05-.08-.01-.03 0-.06.02-.09l.2-.31c.02-.03.05-.05.08-.06.03-.01.06 0 .09.02l2.17 1.43c.03.02.05.05.06.08.01.03 0 .06-.02.09l-.2.31c-.02.03-.04.04-.08.05-.03.01-.06 0-.1-.02l-.78-.52-1.52 2.31c-.02.03-.04.05-.08.05-.03.01-.07 0-.1-.02l-.39-.24zM58.85 15.16c-.03-.02-.04-.05-.04-.08s0-.06.03-.09l1.74-2.15-.73-.59c-.03-.02-.04-.05-.05-.08 0-.03 0-.06.03-.09l.23-.29c.02-.03.05-.04.08-.05.03 0 .06.01.09.03l2.02 1.63c.03.02.05.05.05.08s0 .06-.03.09l-.23.29a.09.09 0 0 1-.08.04c-.03 0-.06-.01-.09-.03l-.73-.59-1.73 2.15a.09.09 0 0 1-.08.04c-.03 0-.06-.01-.09-.03l-.39-.28zM61.39 17.48c-.21-.21-.36-.43-.45-.66-.08-.22-.1-.45-.04-.68.06-.23.19-.46.4-.68.1-.1.2-.21.3-.31.1-.1.2-.2.31-.3.22-.21.45-.34.68-.4.23-.06.46-.04.69.04s.45.22.65.43c.21.21.35.42.44.65.08.23.1.46.04.69s-.18.46-.39.68c-.1.11-.2.21-.3.31s-.2.2-.31.29c-.22.21-.45.34-.68.4-.23.06-.46.05-.68-.04-.23-.06-.45-.2-.66-.42zm.4-.4c.16.16.33.24.52.25.19.01.39-.09.6-.29.11-.1.21-.19.29-.28.09-.09.18-.19.28-.29.13-.14.22-.28.25-.41s.04-.26 0-.38a.768.768 0 0 0-.22-.33c-.1-.1-.21-.17-.33-.21a.616.616 0 0 0-.38 0c-.13.04-.27.13-.41.26-.1.1-.2.19-.29.28-.09.09-.18.19-.28.29-.2.21-.29.41-.28.6s.1.35.25.51zM62.95 19.04a.161.161 0 0 1-.03-.09c0-.03.02-.06.05-.08l2.54-2.03c.03-.02.06-.03.09-.03s.06.02.08.05l.25.31c.03.04.04.07.04.1s-.01.05-.01.06l-.84 2.54 1.72-1.37c.03-.02.06-.03.09-.03s.06.02.08.05l.27.33c.02.03.03.06.03.09s-.02.06-.05.08l-2.54 2.02c-.03.02-.06.03-.09.03s-.06-.02-.08-.05l-.25-.31c-.03-.04-.04-.07-.04-.1.01-.03.01-.05.01-.06l.8-2.51-1.68 1.34c-.03.02-.06.03-.09.03s-.06-.02-.08-.05l-.27-.32z"></path><g><path class="st2" d="M65.58 58.59c.02-.03.04-.05.08-.06.03-.01.06 0 .09.02l2.22 1.34-.1-.97c0-.04.01-.07.03-.09.02-.02.05-.04.09-.04l.34-.04c.04 0 .07.01.09.03.03.02.04.05.04.09l.15 1.43c0 .03 0 .05-.01.07l-.03.06-.23.38c-.02.03-.04.05-.08.06-.03.01-.06 0-.09-.01l-2.79-1.68c-.03-.02-.05-.04-.05-.07-.01-.03 0-.06.01-.09l.24-.43zM64.11 60.67c.14-.19.29-.34.45-.43.16-.09.32-.15.48-.16s.33.01.49.06.32.13.47.23c.07.05.16.11.24.17.09.06.18.13.26.2.09.07.17.13.24.19.14.12.26.24.36.39.1.14.16.29.19.46s.02.33-.02.51c-.05.18-.14.36-.28.55-.14.19-.29.33-.45.43-.16.09-.32.15-.48.17-.16.02-.33 0-.49-.05a1.86 1.86 0 0 1-.47-.23c-.08-.05-.16-.11-.25-.17-.09-.07-.18-.13-.26-.2-.09-.06-.16-.13-.23-.19-.14-.12-.26-.24-.36-.38-.1-.14-.16-.29-.2-.45-.03-.16-.03-.33.02-.51s.14-.39.29-.59zm.46.35c-.13.18-.17.35-.12.52.05.17.17.33.37.47.07.06.15.12.23.18l.24.18c.08.06.16.11.23.16.19.14.38.21.56.21.18 0 .33-.08.47-.26.13-.17.17-.35.11-.52-.05-.17-.18-.33-.36-.47-.07-.05-.15-.11-.23-.17l-.24-.18c-.08-.06-.16-.12-.24-.17-.2-.14-.39-.21-.56-.21-.18 0-.33.08-.46.26zM62.02 63.17c.16-.18.33-.3.5-.38.17-.08.33-.11.5-.11.16 0 .32.04.48.11.16.07.3.17.44.28.07.06.14.13.22.2s.16.15.24.22c.08.08.15.15.22.21.13.13.23.27.31.42a1.117 1.117 0 0 1 .06.97c-.07.17-.18.34-.34.51-.16.17-.33.3-.5.38-.17.08-.33.11-.5.11-.16 0-.32-.04-.48-.11-.16-.07-.3-.16-.44-.28l-.23-.2c-.08-.07-.16-.15-.24-.22-.08-.07-.15-.14-.21-.21-.13-.13-.23-.27-.32-.42-.08-.15-.13-.31-.15-.47-.02-.16.01-.33.08-.5.08-.16.2-.34.36-.51zm.42.39c-.15.16-.21.33-.18.5.03.17.14.34.31.51.07.07.13.14.21.21.07.07.14.13.22.2s.14.13.21.19c.18.16.35.25.53.27.18.02.34-.04.49-.21.15-.16.21-.33.17-.5-.04-.17-.14-.35-.31-.51-.07-.06-.13-.13-.21-.2-.07-.07-.14-.14-.22-.2-.07-.07-.15-.13-.22-.2-.18-.16-.36-.25-.54-.27-.15-.02-.31.05-.46.21zM58.66 66.29c.17-.15.35-.21.53-.2.18.01.34.09.48.23.06.06.11.12.15.17.04.05.09.11.15.18.12.16.17.33.15.51-.02.18-.12.34-.3.49-.19.15-.37.23-.54.21-.18-.01-.33-.09-.47-.24-.06-.07-.12-.13-.16-.17-.04-.05-.09-.11-.14-.18a.699.699 0 0 1-.15-.51c.02-.18.12-.35.3-.49zm.25.3a.36.36 0 0 0-.11.15c-.01.05-.01.1 0 .15.01.05.04.09.07.13.05.07.09.12.13.17.04.04.08.09.14.15.05.06.12.1.19.12.08.02.16 0 .24-.07.08-.07.12-.14.11-.22s-.03-.15-.08-.21l-.13-.16c-.04-.04-.08-.1-.14-.16a.834.834 0 0 0-.12-.08c-.05-.02-.09-.03-.15-.03s-.1.01-.15.06zm1.65-1.85c.06-.05.1-.04.15.01.01.02.02.03.02.06l.15 4.11c0 .04 0 .07-.01.1s-.03.06-.06.08l-.21.17c-.05.05-.1.04-.15-.01-.01-.02-.02-.03-.02-.05l-.15-4.11c0-.04 0-.07.01-.1s.03-.06.06-.09l.21-.17zm.79 1.6c.17-.15.35-.22.53-.21.18 0 .33.08.47.22.06.06.11.12.15.17.04.05.09.11.15.19.12.16.17.33.15.51-.02.18-.12.34-.3.49-.19.16-.37.23-.54.21-.18-.01-.33-.09-.47-.24-.07-.07-.12-.13-.16-.17-.04-.05-.09-.11-.14-.18a.637.637 0 0 1-.14-.5c.03-.18.13-.34.3-.49zm.24.29a.36.36 0 0 0-.11.15c-.01.05-.01.1 0 .15.01.05.04.09.07.13.05.07.09.12.13.17.04.04.08.09.14.15.05.06.12.1.19.12.07.02.15 0 .24-.07.08-.07.12-.14.11-.22a.387.387 0 0 0-.08-.21c-.05-.06-.09-.11-.12-.16-.04-.04-.08-.1-.14-.16a.273.273 0 0 0-.12-.09.32.32 0 0 0-.14-.03c-.06 0-.12.02-.17.07zM54.52 68.94c.27-.14.52-.22.76-.24.24-.02.46.04.67.16.2.12.39.32.54.58.07.13.14.25.21.37.07.12.13.25.2.38.13.27.2.53.18.77-.01.24-.09.46-.24.65-.14.2-.34.36-.6.5-.26.14-.51.22-.75.23-.24.01-.47-.04-.68-.16-.21-.12-.39-.31-.54-.57a4.84 4.84 0 0 1-.21-.37c-.07-.12-.13-.25-.19-.38-.14-.27-.2-.53-.19-.77.01-.24.09-.45.23-.64.14-.2.35-.37.61-.51zm.28.51c-.19.11-.32.25-.38.43s-.03.4.1.66c.06.13.13.25.19.36.06.11.13.23.2.35.1.17.2.29.32.36.12.08.24.11.36.11.13 0 .25-.04.38-.11s.23-.15.3-.25c.07-.1.11-.22.11-.36 0-.14-.04-.29-.13-.47-.07-.13-.13-.25-.19-.36s-.13-.23-.2-.36c-.15-.25-.31-.4-.5-.45a.708.708 0 0 0-.56.09zM52.57 69.98c.03-.01.06-.01.09 0s.05.04.06.07l1.21 3.02c.01.03.01.07 0 .1s-.04.05-.07.06l-1.23.49c-.38.15-.72.19-1.01.1-.29-.08-.5-.29-.64-.62-.09-.23-.11-.44-.06-.64s.16-.37.33-.52l-1.17-.91c-.02-.01-.03-.03-.03-.04-.01-.03-.01-.06 0-.08.01-.03.03-.04.06-.06l.43-.17c.05-.02.1-.02.14-.01.04.02.07.04.1.06l1.05.85.66-.27-.45-1.11a.139.139 0 0 1 0-.09c.01-.03.03-.05.07-.07l.46-.16zm.16 1.97-.67.27c-.19.08-.32.18-.38.3s-.06.26 0 .42c.06.16.16.26.29.31.13.05.29.04.49-.04l.67-.27-.4-.99zM48.24 71.46c.3-.08.57-.1.81-.06.24.04.44.15.61.31s.3.38.38.64c.04.14.08.29.13.45.04.16.08.31.12.45.06.27.06.52 0 .74-.06.22-.19.41-.38.58-.19.16-.43.28-.72.36-.24.07-.46.09-.66.08-.2-.01-.37-.05-.52-.12s-.27-.15-.36-.24a.768.768 0 0 1-.18-.29.11.11 0 0 1 0-.08.18.18 0 0 1 .07-.05l.51-.14c.03-.01.06-.01.08 0 .02.01.04.02.06.04a.662.662 0 0 0 .45.27c.11.02.24.01.39-.03.22-.06.38-.17.48-.32.1-.15.12-.36.06-.63-.07-.28-.15-.56-.23-.85-.08-.27-.21-.45-.38-.53-.17-.08-.36-.09-.59-.03-.15.04-.27.1-.38.19-.1.08-.17.19-.21.32-.04.13-.03.28.01.45l.04.15.6-.17c.03-.01.06-.01.09.01s.05.04.06.08l.07.26c.01.04.01.07-.01.1s-.04.05-.07.06l-1.17.32c-.04.01-.07.01-.1-.01a.124.124 0 0 1-.06-.08l-.14-.51c-.07-.27-.08-.52-.01-.75.07-.23.2-.43.39-.59.21-.17.46-.29.76-.38zM46.43 72c.03 0 .05 0 .08.02s.04.04.04.07v.05l-.72 3.38a.3.3 0 0 1-.04.1c-.02.03-.06.05-.11.06l-.55.08c-.05.01-.09 0-.12-.02s-.06-.05-.07-.08l-1.71-3c-.01-.02-.01-.03-.01-.04 0-.03 0-.06.02-.08.02-.02.04-.04.07-.04l.44-.07c.05-.01.08 0 .11.02s.04.04.05.05l.33.57 1.5-.23.14-.64c0-.02.01-.04.03-.07.02-.03.05-.04.1-.05l.42-.08zm-.8 1.42-1.14.18.81 1.44.33-1.62zM42.69 72.52c.03 0 .06.01.09.03.02.02.04.05.04.08l.13 3.25c0 .04-.01.07-.03.09-.02.02-.05.04-.08.04l-.39.02c-.05 0-.08-.01-.1-.03-.02-.02-.04-.04-.05-.04l-1.56-2.18.09 2.19c0 .04-.01.07-.03.09-.02.02-.05.04-.09.04l-.43.02c-.04 0-.07-.01-.09-.03a.127.127 0 0 1-.04-.09l-.13-3.25c0-.04.01-.07.03-.09a.09.09 0 0 1 .08-.04l.4-.02c.05 0 .08.01.1.03.02.02.04.04.05.04l1.55 2.13-.09-2.15c0-.03.01-.06.03-.09.02-.02.05-.04.09-.04h.43zM39.14 72.58c.03 0 .06.01.09.04s.03.05.03.09l-.14 3.26c0 .03-.02.06-.04.08s-.05.03-.09.03l-.48-.02c-.04 0-.07-.02-.09-.04-.02-.02-.03-.05-.03-.09l.14-3.26c0-.03.01-.06.04-.08.02-.02.05-.03.09-.03l.48.02zM36.46 72.32c.31.04.57.13.78.26s.35.31.44.52.13.46.1.75c-.01.14-.03.28-.05.44-.02.16-.04.3-.06.45-.05.28-.14.51-.28.7-.14.19-.33.32-.56.4-.23.08-.5.1-.81.06-.23-.03-.43-.08-.61-.17-.17-.08-.32-.18-.44-.3-.11-.12-.2-.25-.25-.4-.05-.15-.07-.3-.06-.47 0-.03.01-.05.04-.07.02-.02.05-.02.08-.02l.48.06c.04 0 .07.02.09.04.02.02.03.05.04.1.03.22.1.38.22.48.12.1.28.16.48.18.23.03.41-.01.56-.12.15-.11.25-.3.29-.59.04-.27.08-.55.1-.83.02-.29-.02-.5-.14-.64-.12-.14-.29-.22-.52-.25-.2-.02-.36 0-.51.06-.14.07-.25.2-.33.41-.02.05-.04.08-.06.09-.03.01-.06.02-.09.01l-.48-.06c-.03 0-.05-.02-.08-.04a.078.078 0 0 1-.02-.08c.02-.16.08-.31.17-.44.09-.13.2-.24.34-.33.14-.09.31-.15.5-.19.2-.03.41-.04.64-.01zM30.93 71.11c.3.1.54.23.72.4.18.17.29.37.34.59.05.23.04.48-.04.75-.04.13-.08.27-.13.42-.05.15-.09.29-.14.43-.1.26-.23.47-.41.63-.17.16-.38.26-.62.29s-.51.01-.81-.09c-.22-.07-.41-.16-.56-.27s-.28-.24-.37-.38c-.09-.14-.15-.29-.17-.44a.941.941 0 0 1 .03-.47c.01-.03.02-.05.05-.06.03-.01.06-.01.08 0l.46.15c.04.01.06.03.08.05.02.02.02.06.02.1-.01.23.03.4.13.51.1.12.25.2.43.26.22.07.41.06.58-.01.17-.08.3-.25.4-.52.09-.26.18-.52.25-.8s.07-.49-.02-.66c-.09-.16-.25-.27-.46-.34a.907.907 0 0 0-.51-.03c-.15.04-.28.15-.4.34-.02.04-.05.07-.08.08a.17.17 0 0 1-.1 0l-.46-.15c-.03-.01-.05-.03-.07-.05-.02-.03-.02-.05 0-.08a.88.88 0 0 1 .25-.4c.11-.11.24-.2.4-.26.16-.06.33-.09.52-.09.18-.01.39.03.61.1zM27.76 69.91c.28.12.49.27.65.45.16.18.25.38.28.62.03.24-.02.5-.13.78-.06.13-.11.26-.17.39l-.18.39c-.13.27-.3.48-.5.61s-.42.21-.66.21c-.24 0-.5-.05-.76-.17a1.73 1.73 0 0 1-.64-.46c-.16-.18-.26-.39-.29-.63-.03-.24.01-.5.12-.78.05-.14.11-.27.17-.4s.12-.26.18-.38c.13-.28.3-.48.49-.62.2-.14.41-.21.65-.21.26.01.52.07.79.2zm-.23.52a.76.76 0 0 0-.57-.04c-.18.06-.33.22-.46.48-.07.13-.12.25-.17.37-.05.11-.1.24-.16.37-.07.18-.1.34-.09.48.01.14.06.25.14.35.08.1.19.17.32.23s.26.08.38.08.24-.05.35-.13c.11-.08.21-.21.29-.39.06-.13.12-.25.17-.37.05-.11.11-.24.16-.37.11-.27.13-.49.05-.66a.765.765 0 0 0-.41-.4zM25.06 68.61c.03.02.05.04.06.07.01.03.01.06-.01.09l-1.38 2.4.82.47c.03.02.05.04.06.07.01.03 0 .06-.01.09l-.18.32c-.02.03-.04.05-.08.06-.03.01-.06 0-.09-.01L22 70.87a.124.124 0 0 1-.06-.08.121.121 0 0 1 .01-.1l.19-.32c.02-.03.04-.05.07-.06.03-.01.07 0 .1.02l.81.47 1.38-2.39c.02-.03.04-.05.07-.06.03-.01.06 0 .1.02l.39.24zM22.51 66.99c.03.02.04.04.05.08s0 .06-.02.09l-1.61 2.25.77.55c.03.02.04.05.05.08.01.03 0 .06-.02.09l-.22.3c-.02.03-.05.05-.08.05s-.06 0-.09-.02l-2.12-1.51c-.03-.02-.05-.05-.05-.08-.01-.03 0-.06.02-.09l.22-.3c.02-.03.05-.04.08-.05.03 0 .06 0 .09.02l.77.55 1.6-2.25c.02-.03.05-.04.08-.05.03 0 .06 0 .09.02l.39.27zM19.85 64.82c.23.2.39.41.49.63.1.22.13.44.08.68-.04.23-.16.47-.36.71-.09.11-.19.22-.28.32-.09.11-.19.21-.29.32-.21.22-.43.36-.66.43-.23.07-.46.07-.69 0-.23-.07-.46-.2-.68-.39s-.38-.4-.47-.63-.13-.45-.09-.69c.04-.24.16-.47.35-.71.09-.11.18-.22.28-.33.09-.11.19-.21.29-.31.21-.22.43-.37.66-.44.23-.07.46-.07.69 0 .22.08.45.21.68.41zm-.38.43c-.17-.15-.34-.22-.53-.21-.19 0-.38.11-.58.32-.1.1-.2.2-.28.3-.08.09-.17.2-.26.31-.12.15-.2.29-.23.43s-.02.26.02.38.13.22.24.32c.11.09.22.16.34.19.12.03.25.03.38-.02s.26-.14.4-.28c.1-.11.19-.2.27-.3.08-.09.17-.2.27-.31.19-.22.27-.43.25-.62a.913.913 0 0 0-.29-.51zM18.2 63.36c.02.03.03.05.03.09s-.02.06-.04.08l-2.42 2.17c-.03.02-.06.04-.09.03-.03 0-.06-.02-.08-.04l-.26-.29c-.03-.04-.05-.07-.05-.1s0-.05.01-.06l.69-2.59-1.63 1.47c-.03.02-.06.04-.09.04s-.06-.02-.09-.04l-.29-.32c-.02-.03-.04-.06-.04-.09s.02-.06.04-.09l2.42-2.17c.03-.02.06-.04.09-.03.03 0 .06.02.08.04l.27.3c.03.04.05.07.04.1 0 .03-.01.05 0 .06l-.65 2.55 1.6-1.44c.02-.02.05-.03.09-.03.03 0 .06.02.09.04l.28.32z"></path></g><path class="st2" d="M71.8 41.98c-.05-.09-.62-1.09-.28-2.2.29-.95.66-.9 1.38-1.89.35-.47.72-1.16.92-2.15.06-.3.46-.37.61-.1.74 1.32 1.14 2.47 1.37 3.3.33 1.18.34 1.82.18 2.38-.03.11-.59 1.91-2 2.03-1.29.11-2.12-1.25-2.18-1.37z"></path><g><path class="st0" d="M72.84 43c.52-.85.91-1.71 1.14-2.63.24-.92.32-1.86.33-2.86.38.93.41 2 .16 2.98-.26.99-.82 1.92-1.63 2.51z"></path></g><path class="st1" d="M24.86 48.09c-1.84-.43-4.95-3.72-4.62-7.63.26-3.01 1.9-4.37 4.76-5.61-1.41-4.79 1.28-10.81 5.58-13.27 4.38-2.51 10.31-1.24 13.71 2.54 2.19-1.14 4.8-.97 6.7.43 2.34 1.73 2.47 4.5 2.48 4.86 4.22.28 7.78 3.25 8.75 7.24 1.05 4.32-1.14 8.92-5.29 10.91"></path><path class="st1" d="M30.3 38.71c-1.3-2.07-1.01-4.75.64-6.44 1.77-1.81 4.69-2.07 6.82-.53.4-1.2 1.55-1.93 2.68-1.78.9.12 1.67.78 1.99 1.69M41.49 61.7c-.17.42-.76.45-.96.04-.42-.86-.85-1.91-.99-3.39-.22-2.47.27-4.46.65-5.62l-2.7-1.84c-1.05.29-2.78.58-4.75.11-3.91-.93-6.01-4.19-6.84-5.82-.2-.4.1-.86.55-.84 1.17.06 2.45.18 3.81.39 1.37.21 2.64.48 3.78.78.36.09.67-.27.5-.6a5.61 5.61 0 0 1-.61-2.02c-.12-1.17.15-2.14.42-2.78.16-.38.62-.51.96-.29.79.52 1.77 1.21 2.7 1.97.62.51 1.26 1.47 1.8 2.28.32.48 1.02.51 1.38.05.64-.81 1.31-1.71 2.28-2.49 1.1-.88 2.21-1.42 3.2-1.95.36-.19.81-.01.93.38.17.54.3 1.24.26 2.07-.06 1.01-.27 1.71-.51 2.21-.15.32.12.68.47.63.73-.09 1.46-.09 2.41-.25 1.54-.26 2.97-.38 4.25-.42.47-.01.8.46.62.89-.41 1.03-1.18 2.45-2.61 3.63-3.58 2.97-7.8 1.94-8.32 1.8-.54.68-1.63 1.49-2.17 2.18.24 1.2.67 2.72.45 4.77-.19 1.81-.55 3.1-.96 4.13z"></path><path class="st2" d="M7.95 43.72c.05-.09.62-1.09.28-2.2-.29-.95-.66-.9-1.38-1.89-.35-.47-.72-1.16-.92-2.15-.06-.3-.46-.37-.61-.1-.74 1.32-1.14 2.47-1.37 3.3-.33 1.18-.34 1.82-.18 2.38.03.11.59 1.91 2 2.03 1.28.12 2.11-1.25 2.18-1.37z"></path><g><path class="st0" d="M6.9 44.75c-.81-.59-1.36-1.52-1.62-2.51-.25-.99-.22-2.05.16-2.98.01 1 .08 1.94.33 2.86.22.92.62 1.77 1.13 2.63z"></path></g></g></svg>
